<svg width="10" height="12" viewBox="0 0 10 12" fill="none" xmlns="http://www.w3.org/2000/svg">
<g id="sort">
<path className="sort__arrow" d="M4.8535 1.8965L3.1035 0.146499C2.9085 -0.0487515 2.5915 -0.0487515 2.3965 0.146499L0.646499 1.8965C0.451248 2.09175 0.451248 2.40825 0.646499 2.6035C0.841499 2.79875 1.1585 2.79875 1.3535 2.6035L2.25 1.707V11.5C2.25 11.776 2.474 12 2.75 12C3.026 12 3.25 11.776 3.25 11.5V1.707L4.1465 2.6035C4.244 2.70125 4.372 2.75 4.5 2.75C4.628 2.75 4.756 2.70125 4.8535 2.6035C5.04875 2.40825 5.04875 2.09175 4.8535 1.8965V1.8965Z" fill="black"/>
<path className="sort__arrow" d="M9.35351 9.3965C9.15826 9.20125 8.84175 9.20125 8.6465 9.3965L7.75 10.293V0.5C7.75 0.224 7.526 0 7.25 0C6.974 0 6.75 0.224 6.75 0.5V10.293L5.8535 9.3965C5.65825 9.20125 5.3415 9.20125 5.1465 9.3965C4.95125 9.59175 4.95125 9.90825 5.1465 10.1035L6.8965 11.8535C6.99425 11.9513 7.122 12 7.25 12C7.378 12 7.50575 11.9513 7.6035 11.8535L9.35351 10.1035C9.54876 9.90825 9.54876 9.59175 9.35351 9.3965Z" fill="black"/>
</g>
</svg>
